<svg xmlns="http://www.w3.org/2000/svg" width="40" zoomAndPan="magnify" viewBox="0 0 30 30" height="40" preserveAspectRatio="xMidYMid meet" xmlns:v="https://vecta.io/nano"><style><![CDATA[.B{clip-rule:nonzero}.C{fill:#171810}]]></style><defs><clipPath id="A"><path d="M.484 0h29.031v29.031H.484zm0 0" class="B"/></clipPath><linearGradient x1="29.516" y1="14.516" x2=".484" gradientUnits="userSpaceOnUse" y2="14.516" id="B"><stop stop-color="rgb(22.698975%, 51.399231%, 95.298767%)" offset="0"/><stop stop-color="rgb(22.689819%, 51.515198%, 95.169067%)" offset=".008"/><stop stop-color="rgb(22.671509%, 51.748657%, 94.908142%)" offset=".016"/><stop stop-color="rgb(22.654724%, 51.980591%, 94.648743%)" offset=".023"/><stop stop-color="rgb(22.636414%, 52.21405%, 94.387817%)" offset=".031"/><stop stop-color="rgb(22.618103%, 52.445984%, 94.128418%)" offset=".039"/><stop stop-color="rgb(22.599792%, 52.679443%, 93.867493%)" offset=".047"/><stop stop-color="rgb(22.583008%, 52.911377%, 93.608093%)" offset=".055"/><stop stop-color="rgb(22.564697%, 53.144836%, 93.347168%)" offset=".063"/><stop stop-color="rgb(22.546387%, 53.378296%, 93.087769%)" offset=".07"/><stop stop-color="rgb(22.528076%, 53.610229%, 92.826843%)" offset=".078"/><stop stop-color="rgb(22.509766%, 53.843689%, 92.567444%)" offset=".086"/><stop stop-color="rgb(22.492981%, 54.075623%, 92.306519%)" offset=".094"/><stop stop-color="rgb(22.47467%, 54.309082%, 92.047119%)" offset=".102"/><stop stop-color="rgb(22.45636%, 54.541016%, 91.786194%)" offset=".109"/><stop stop-color="rgb(22.438049%, 54.774475%, 91.526794%)" offset=".117"/><stop stop-color="rgb(22.421265%, 55.007935%, 91.265869%)" offset=".125"/><stop stop-color="rgb(22.402954%, 55.239868%, 91.00647%)" offset=".133"/><stop stop-color="rgb(22.384644%, 55.473328%, 90.745544%)" offset=".141"/><stop stop-color="rgb(22.366333%, 55.705261%, 90.486145%)" offset=".148"/><stop stop-color="rgb(22.348022%, 55.938721%, 90.22522%)" offset=".156"/><stop stop-color="rgb(22.331238%, 56.17218%, 89.96582%)" offset=".164"/><stop stop-color="rgb(22.312927%, 56.404114%, 89.704895%)" offset=".172"/><stop stop-color="rgb(22.294617%, 56.637573%, 89.445496%)" offset=".18"/><stop stop-color="rgb(22.276306%, 56.869507%, 89.18457%)" offset=".188"/><stop stop-color="rgb(22.259521%, 57.102966%, 88.925171%)" offset=".195"/><stop stop-color="rgb(22.241211%, 57.3349%, 88.664246%)" offset=".203"/><stop stop-color="rgb(22.2229%, 57.568359%, 88.404846%)" offset=".211"/><stop stop-color="rgb(22.20459%, 57.801819%, 88.143921%)" offset=".219"/><stop stop-color="rgb(22.186279%, 58.033752%, 87.884521%)" offset=".227"/><stop stop-color="rgb(22.169495%, 58.267212%, 87.623596%)" offset=".234"/><stop stop-color="rgb(22.151184%, 58.499146%, 87.364197%)" offset=".242"/><stop stop-color="rgb(22.132874%, 58.732605%, 87.103271%)" offset=".25"/><stop stop-color="rgb(22.114563%, 58.964539%, 86.843872%)" offset=".258"/><stop stop-color="rgb(22.097778%, 59.197998%, 86.582947%)" offset=".266"/><stop stop-color="rgb(22.079468%, 59.431458%, 86.323547%)" offset=".273"/><stop stop-color="rgb(22.061157%, 59.663391%, 86.062622%)" offset=".281"/><stop stop-color="rgb(22.042847%, 59.896851%, 85.803223%)" offset=".289"/><stop stop-color="rgb(22.024536%, 60.128784%, 85.542297%)" offset=".297"/><stop stop-color="rgb(22.007751%, 60.362244%, 85.282898%)" offset=".305"/><stop stop-color="rgb(21.989441%, 60.594177%, 85.021973%)" offset=".313"/><stop stop-color="rgb(21.97113%, 60.827637%, 84.762573%)" offset=".32"/><stop stop-color="rgb(21.95282%, 61.061096%, 84.501648%)" offset=".328"/><stop stop-color="rgb(21.936035%, 61.29303%, 84.242249%)" offset=".336"/><stop stop-color="rgb(21.917725%, 61.526489%, 83.981323%)" offset=".344"/><stop stop-color="rgb(21.899414%, 61.758423%, 83.721924%)" offset=".352"/><stop stop-color="rgb(21.881104%, 61.991882%, 83.460999%)" offset=".359"/><stop stop-color="rgb(21.862793%, 62.225342%, 83.201599%)" offset=".367"/><stop stop-color="rgb(21.846008%, 62.457275%, 82.940674%)" offset=".375"/><stop stop-color="rgb(21.827698%, 62.690735%, 82.681274%)" offset=".383"/><stop stop-color="rgb(21.809387%, 62.922668%, 82.421875%)" offset=".391"/><stop stop-color="rgb(21.791077%, 63.156128%, 82.16095%)" offset=".398"/><stop stop-color="rgb(21.774292%, 63.388062%, 81.90155%)" offset=".406"/><stop stop-color="rgb(21.755981%, 63.621521%, 81.640625%)" offset=".414"/><stop stop-color="rgb(21.737671%, 63.85498%, 81.381226%)" offset=".422"/><stop stop-color="rgb(21.71936%, 64.086914%, 81.1203%)" offset=".43"/><stop stop-color="rgb(21.70105%, 64.320374%, 80.860901%)" offset=".438"/><stop stop-color="rgb(21.684265%, 64.552307%, 80.599976%)" offset=".445"/><stop stop-color="rgb(21.665955%, 64.785767%, 80.340576%)" offset=".453"/><stop stop-color="rgb(21.647644%, 65.0177%, 80.079651%)" offset=".461"/><stop stop-color="rgb(21.629333%, 65.25116%, 79.820251%)" offset=".469"/><stop stop-color="rgb(21.612549%, 65.484619%, 79.559326%)" offset=".477"/><stop stop-color="rgb(21.594238%, 65.716553%, 79.299927%)" offset=".484"/><stop stop-color="rgb(21.575928%, 65.950012%, 79.039001%)" offset=".492"/><stop stop-color="rgb(21.557617%, 66.181946%, 78.779602%)" offset=".5"/><stop stop-color="rgb(21.540833%, 66.415405%, 78.518677%)" offset=".508"/><stop stop-color="rgb(21.522522%, 66.647339%, 78.259277%)" offset=".516"/><stop stop-color="rgb(21.504211%, 66.880798%, 77.998352%)" offset=".523"/><stop stop-color="rgb(21.485901%, 67.114258%, 77.738953%)" offset=".531"/><stop stop-color="rgb(21.46759%, 67.346191%, 77.478027%)" offset=".539"/><stop stop-color="rgb(21.450806%, 67.579651%, 77.218628%)" offset=".547"/><stop stop-color="rgb(21.432495%, 67.811584%, 76.957703%)" offset=".555"/><stop stop-color="rgb(21.414185%, 68.045044%, 76.698303%)" offset=".563"/><stop stop-color="rgb(21.395874%, 68.276978%, 76.437378%)" offset=".57"/><stop stop-color="rgb(21.379089%, 68.510437%, 76.177979%)" offset=".578"/><stop stop-color="rgb(21.360779%, 68.743896%, 75.917053%)" offset=".586"/><stop stop-color="rgb(21.342468%, 68.97583%, 75.657654%)" offset=".594"/><stop stop-color="rgb(21.324158%, 69.20929%, 75.396729%)" offset=".602"/><stop stop-color="rgb(21.305847%, 69.441223%, 75.137329%)" offset=".609"/><stop stop-color="rgb(21.289062%, 69.674683%, 74.876404%)" offset=".617"/><stop stop-color="rgb(21.270752%, 69.908142%, 74.617004%)" offset=".625"/><stop stop-color="rgb(21.252441%, 70.140076%, 74.356079%)" offset=".633"/><stop stop-color="rgb(21.234131%, 70.373535%, 74.09668%)" offset=".641"/><stop stop-color="rgb(21.217346%, 70.605469%, 73.835754%)" offset=".648"/><stop stop-color="rgb(21.199036%, 70.838928%, 73.576355%)" offset=".656"/><stop stop-color="rgb(21.180725%, 71.070862%, 73.31543%)" offset=".664"/><stop stop-color="rgb(21.162415%, 71.304321%, 73.05603%)" offset=".672"/><stop stop-color="rgb(21.144104%, 71.537781%, 72.795105%)" offset=".68"/><stop stop-color="rgb(21.127319%, 71.769714%, 72.535706%)" offset=".688"/><stop stop-color="rgb(21.109009%, 72.003174%, 72.27478%)" offset=".695"/><stop stop-color="rgb(21.090698%, 72.235107%, 72.015381%)" offset=".703"/><stop stop-color="rgb(21.072388%, 72.468567%, 71.754456%)" offset=".711"/><stop stop-color="rgb(21.055603%, 72.7005%, 71.495056%)" offset=".719"/><stop stop-color="rgb(21.037292%, 72.93396%, 71.234131%)" offset=".727"/><stop stop-color="rgb(21.018982%, 73.167419%, 70.974731%)" offset=".734"/><stop stop-color="rgb(21.000671%, 73.399353%, 70.713806%)" offset=".742"/><stop stop-color="rgb(20.982361%, 73.632812%, 70.454407%)" offset=".75"/><stop stop-color="rgb(20.965576%, 73.864746%, 70.193481%)" offset=".758"/><stop stop-color="rgb(20.947266%, 74.098206%, 69.934082%)" offset=".766"/><stop stop-color="rgb(20.928955%, 74.330139%, 69.673157%)" offset=".773"/><stop stop-color="rgb(20.910645%, 74.563599%, 69.413757%)" offset=".781"/><stop stop-color="rgb(20.89386%, 74.797058%, 69.152832%)" offset=".789"/><stop stop-color="rgb(20.875549%, 75.028992%, 68.893433%)" offset=".797"/><stop stop-color="rgb(20.857239%, 75.262451%, 68.632507%)" offset=".805"/><stop stop-color="rgb(20.838928%, 75.494385%, 68.373108%)" offset=".813"/><stop stop-color="rgb(20.820618%, 75.727844%, 68.112183%)" offset=".82"/><stop stop-color="rgb(20.803833%, 75.959778%, 67.852783%)" offset=".828"/><stop stop-color="rgb(20.785522%, 76.193237%, 67.591858%)" offset=".836"/><stop stop-color="rgb(20.767212%, 76.426697%, 67.332458%)" offset=".844"/><stop stop-color="rgb(20.748901%, 76.65863%, 67.071533%)" offset=".852"/><stop stop-color="rgb(20.732117%, 76.89209%, 66.812134%)" offset=".859"/><stop stop-color="rgb(20.713806%, 77.124023%, 66.551208%)" offset=".867"/><stop stop-color="rgb(20.695496%, 77.357483%, 66.291809%)" offset=".875"/><stop stop-color="rgb(20.677185%, 77.590942%, 66.030884%)" offset=".883"/><stop stop-color="rgb(20.658875%, 77.822876%, 65.771484%)" offset=".891"/><stop stop-color="rgb(20.64209%, 78.056335%, 65.510559%)" offset=".898"/><stop stop-color="rgb(20.623779%, 78.288269%, 65.25116%)" offset=".906"/><stop stop-color="rgb(20.605469%, 78.521729%, 64.990234%)" offset=".914"/><stop stop-color="rgb(20.587158%, 78.753662%, 64.730835%)" offset=".922"/><stop stop-color="rgb(20.570374%, 78.987122%, 64.46991%)" offset=".93"/><stop stop-color="rgb(20.552063%, 79.220581%, 64.21051%)" offset=".938"/><stop stop-color="rgb(20.533752%, 79.452515%, 63.949585%)" offset=".945"/><stop stop-color="rgb(20.515442%, 79.685974%, 63.690186%)" offset=".953"/><stop stop-color="rgb(20.497131%, 79.917908%, 63.42926%)" offset=".961"/><stop stop-color="rgb(20.480347%, 80.151367%, 63.169861%)" offset=".969"/><stop stop-color="rgb(20.462036%, 80.383301%, 62.908936%)" offset=".977"/><stop stop-color="rgb(20.443726%, 80.61676%, 62.649536%)" offset=".984"/><stop stop-color="rgb(20.425415%, 80.85022%, 62.388611%)" offset=".992"/><stop stop-color="rgb(20.40863%, 81.082153%, 62.129211%)" offset="1"/></linearGradient><clipPath id="C"><path d="M1.184.699h27.582v27.582H1.184zm0 0" class="B"/></clipPath><clipPath id="D"><path d="M12 11h16.766v7H12zm0 0" class="B"/></clipPath><clipPath id="E"><path d="M3 2h25.766v25H3zm0 0" class="B"/></clipPath><clipPath id="F"><path d="M5 4h23.766v21H5zm0 0" class="B"/></clipPath><clipPath id="G"><path d="M7 6h21.766v17H7zm0 0" class="B"/></clipPath><clipPath id="H"><path d="M9 9h19.766v11H9zm0 0" class="B"/></clipPath></defs><g clip-path="url(#A)"><path fill="url(#B)" d="M.484 0v29.031h29.031V0zm0 0"/></g><g clip-path="url(#C)" class="C"><path d="M28.512 14.492V28H14.977c-3.609 0-6.996-1.41-9.562-3.949-2.539-2.539-3.949-5.949-3.949-9.559C1.465 7.047 7.531.984 14.977.984h13.648V.699H14.977C7.391.699 1.184 6.906 1.184 14.492c0 3.691 1.437 7.16 4.035 9.758s6.063 4.031 9.758 4.031h13.789V14.492zm0 0"/></g><g clip-path="url(#D)" class="C"><path d="M28.652 11.137H15.398a3.34 3.34 0 0 0-3.355 3.355c0 .902.336 1.746.984 2.367.621.621 1.469.988 2.371.988h3.355v-3.355h-.281v3.074h-3.074c-.816 0-1.578-.312-2.172-.902s-.902-1.355-.902-2.172c0-1.691 1.383-3.074 3.074-3.074h13.254zm0 0"/></g><g clip-path="url(#E)" class="C"><path d="M28.625 2.789H15.059A11.71 11.71 0 0 0 3.355 14.492c0 3.129 1.215 6.062 3.441 8.289 2.199 2.199 5.16 3.441 8.289 3.441h11.707v-11.73h-.285v11.422H15.059a11.39 11.39 0 0 1-8.094-3.355c-2.141-2.145-3.328-4.992-3.328-8.066A11.45 11.45 0 0 1 15.059 3.07h13.566zm0 0"/></g><g clip-path="url(#F)" class="C"><path d="M28.625 4.875h-13.48a9.63 9.63 0 0 0-9.617 9.617 9.58 9.58 0 0 0 2.82 6.797 9.58 9.58 0 0 0 6.797 2.82h9.617v-9.617h-.281v9.332h-9.336c-2.48 0-4.852-.957-6.598-2.734-1.777-1.75-2.738-4.117-2.738-6.598a9.35 9.35 0 0 1 9.336-9.336h13.508v-.281zm0 0"/></g><g clip-path="url(#G)" class="C"><path d="M28.625 6.961H15.23a7.55 7.55 0 0 0-7.531 7.531c0 2 .789 3.891 2.199 5.328 1.41 1.41 3.301 2.199 5.332 2.199h7.527v-7.527h-.281v7.246H15.23c-1.949 0-3.754-.762-5.133-2.113S7.98 16.438 7.98 14.492a7.25 7.25 0 0 1 7.25-7.25h13.422v-.281zm0 0"/></g><g clip-path="url(#H)" class="C"><path d="M15.313 9.332h13.34v-.285h-13.34c-2.988 0-5.441 2.453-5.441 5.445 0 1.465.563 2.82 1.605 3.836a5.48 5.48 0 0 0 3.863 1.605h5.445v-5.441h-.281v5.16h-5.191c-1.383 0-2.68-.535-3.637-1.523-.988-.988-1.523-2.285-1.523-3.637 0-2.848 2.313-5.16 5.16-5.16zm0 0"/></g></svg>